# AST/ASF file generated using VICON BodyLanguage
# -----------------------------------------------
:version 1.10
:name VICON
:units
  mass 1.0
  length 0.45
  angle deg
:documentation
   .ast/.asf automatically generated from VICON data using
   VICON BodyBuilder and BodyLanguage model FoxedUp or BRILLIANT.MOD
:root
   order TX TY TZ RX RY RZ
   axis XYZ
   position 0 0 0  
   orientation 0 0 0 
:bonedata
  begin
     id 1 
     name lhipjoint
     direction 0.561145 -0.797705 0.220866 
     length 2.46425 
     axis 0 0 0  XYZ
  end
  begin
     id 2 
     name lfemur
     direction 0.34202 -0.939693 0  
     length 7.95556  
     axis 0 0 20  XYZ
    dof rx ry rz
    limits (-160.0 20.0)
           (-70.0 70.0)
           (-60.0 70.0)
  end
  begin
     id 3 
     name ltibia
     direction 0.34202 -0.939693 0   
     length 7.9832   
     axis 0 0 20   XYZ
    dof rx
    limits (-10.0 170.0)
  end
  begin
     id 4 
     name lfoot
     direction 0.0723927 -0.198897 0.977343   
     length 2.23085   
     axis -90 7.62852e-016 20   XYZ
    dof rx rz
    limits (-45.0 90.0)
           (-70.0 20.0)
  end
  begin
     id 5 
     name ltoes
     direction 1.53826e-011 -4.21988e-011 1   
     length 1.12127   
     axis -90 7.62852e-016 20   XYZ
    dof rx
    limits (-90.0 20.0)
  end
  begin
     id 6 
     name rhipjoint
     direction -0.610499 -0.763299 0.21134   
     length 2.57533  
     axis 0 0 0  XYZ 
  end
  begin
     id 7 
     name rfemur
     direction -0.34202 -0.939693 0   
     length 8.65257   
     axis 0 0 -20   XYZ
    dof rx ry rz
    limits (-160.0 20.0)
           (-70.0 70.0)
           (-70.0 60.0)
  end
  begin
     id 8 
     name rtibia
     direction -0.342021 -0.939692 0   
     length 7.37807   
     axis 0 0 -20   XYZ
    dof rx
    limits (-10.0 170.0)
 end
 begin
     id 9 
     name rfoot
     direction -0.0239304 -0.0543852 0.998233   
     length 1.87018  
     axis -90 -7.62852e-016 -20   XYZ
    dof rx rz
    limits (-45.0 90.0)
           (-20.0 70.0)
  end
  begin
     id 10 
     name rtoes
     direction -1.53584e-011 -4.2242e-011 1   
     length 0.951568   
     axis -90 -7.62852e-016 -20   XYZ
    dof rx
    limits (-90.0 20.0)
  end
  begin
     id 11 
     name lowerback
     direction 0.00322089 0.999033 0.0438587   
     length 2.07568   
     axis 0 0 0   XYZ
    dof rx ry rz
    limits (-20.0 45.0)
           (-30.0 30.0)
           (-30.0 30.0)
  end
  begin
     id 12 
     name upperback
     direction -0.00321932 0.999732 -0.0229403   
     length 2.06253   
     axis 0 0 0   XYZ
    dof rx ry rz
    limits (-20.0 45.0)
           (-30.0 30.0)
           (-30.0 30.0)
  end
  begin
     id 13 
     name thorax
     direction -0.00537537 0.998955 -0.0453918   
     length 2.06975   
     axis 0 0 0   XYZ
    dof rx ry rz
    limits (-20.0 45.0)
           (-30.0 30.0)
           (-30.0 30.0)
  end
  begin
     id 14 
     name lowerneck
     direction -0.00013604 0.994111 0.108363   
     length 1.50836   
     axis 0 0 0   XYZ
    dof rx ry rz
    limits (-20.0 45.0)
           (-30.0 30.0)
           (-30.0 30.0)
  end
  begin
     id 15 
     name upperneck
     direction 0.0397262 0.983859 -0.174482   
     length 1.53037   
     axis 0 0 0   XYZ
    dof rx ry rz
    limits (-20.0 45.0)
           (-30.0 30.0)
           (-30.0 30.0)
  end
  begin
     id 16
     name head
     direction 0.0109991 0.997082 -0.0755378  
     length 1.56928  
     axis 0 0 0   XYZ
    dof rx ry rz
    limits (-20.0 45.0)
           (-30.0 30.0)
           (-30.0 30.0)
  end
  begin
     id 17 
     name lclavicle
     direction 0.964749 0.254 -0.068874  
     length 3.26503  
     axis 0 0 0   XYZ
    dof ry rz
    limits (-20.0 10.0)
           (0.0 20.0)
  end
  begin
     id 18 
     name lhumerus
     direction 1 -4.48941e-011 -2.05079e-027   
     length 5.68236   
     axis 180 -30 -90   XYZ
    dof rx ry rz
    limits (-60.0 90.0)
           (-90.0 90.0)
           (-90.0 90.0)
  end
  begin
     id 19
     name lradius
     direction 1 -4.48956e-011 6.2882e-027   
     length 3.17112   
     axis 180 -30 -90   XYZ
    dof rx
    limits (-10.0 170.0)
  end
  begin
     id 20
     name lwrist
     direction 1 -4.49014e-011 1.73219e-026   
     length 1.58556   
     axis -1.04724e-014 90 90   XYZ
    dof ry
    limits (-180.0 0.0)
 end
  begin
     id 21 
     name lhand
     direction 1 -4.49312e-011 3.46438e-026   
     length 0.632691   
     axis -2.21057e-014 90 90   XYZ
    dof rx rz
    limits (-90.0 90.0)
           (-45.0 45.0)
  end
  begin
     id 22 
     name lfingers
     direction 1 -4.48894e-011 6.92876e-026   
     length 0.510091   
     axis -4.42114e-014 90 90   XYZ
    dof rx
    limits (0.0 90.0)
  end
  begin
     id 23
     name lthumb
     direction 0.707107 -6.34705e-011 0.707107   
     length 0.732392   
     axis -90 45 2.85299e-015   XYZ
    dof rx rz
    limits (-45.0 45.0)
           (-45.0 45.0)
  end
  begin
     id 24 
     name rclavicle
     direction -0.954374 0.280496 -0.102435   
     length 3.25419  
     axis 0 0 0   XYZ 
    dof ry rz
    limits (-10.0 20.0)
           (-20.0 0.0)
  end
  begin
     id 25 
     name rhumerus
     direction -1 -4.48994e-011 -1.07204e-017  
     length 5.8712   
     axis 180 30 90   XYZ
    dof rx ry rz
    limits (-90.0 60.0)
           (-90.0 90.0)
           (-90.0 90.0)
  end
  begin
     id 26 
     name rradius
     direction -1 -4.48972e-011 5.89292e-027   
     length 3.37589   
     axis 180 30 90   XYZ
    dof rx
    limits (-10.0 170.0)
  end
  begin
     id 27 
     name rwrist
     direction -1 -4.48942e-011 1.73219e-026   
     length 1.68794   
     axis -1.04724e-014 -90 -90   XYZ
    dof ry
    limits (-180.0 0.0)
  end
  begin
     id 28
     name rhand
     direction -1 -4.48514e-011 3.46438e-026   
     length 0.603257   
     axis -2.21057e-014 -90 -90   XYZ
    dof rx rz
    limits (-90.0 90.0)
           (-45.0 45.0)
  end
  begin
     id 29
     name rfingers
     direction -1 -4.50028e-011 6.92876e-026   
     length 0.486362   
     axis -4.42114e-014 -90 -90   XYZ
    dof rx
    limits (0.0 90.0)
  end
  begin
     id 30
     name rthumb
     direction -0.707107 -6.34926e-011 0.707107   
     length 0.698321   
     axis -90 -45 -2.85299e-015   XYZ
    dof rx rz
    limits (-45.0 45.0)
           (-45.0 45.0)
  end
:hierarchy
  begin
    root lhipjoint rhipjoint lowerback
    lhipjoint lfemur
    lfemur ltibia
    ltibia lfoot
    lfoot ltoes
    rhipjoint rfemur
    rfemur rtibia
    rtibia rfoot
    rfoot rtoes
    lowerback upperback
    upperback thorax
    thorax lowerneck lclavicle rclavicle
    lowerneck upperneck
    upperneck head
    lclavicle lhumerus
    lhumerus lradius
    lradius lwrist
    lwrist lhand lthumb
    lhand lfingers
    rclavicle rhumerus
    rhumerus rradius
    rradius rwrist
    rwrist rhand rthumb
    rhand rfingers
  end

#!OML:ASF I:\Segmentation\Patient Classification 1\Patient 1\Session 1\Patient1.ASF
:FULLY-SPECIFIED
:DEGREES
1718
root -9.95985 18.0322 -1.28635 14.6211 -103.347 -721.549
lowerback -12.1575 -0.170261 -3.4528
upperback 0.186796 0.182839 0.821769
thorax 7.01995 -0.0588955 2.85343
lowerneck -17.5308 2.39461 -0.293256
upperneck 22.9872 3.48029 -1.13071
head 10.2591 1.33286 0.11238
rclavicle 3.94588e-014 -2.18663e-015
rhumerus -41.2624 6.74087 -87.8954
rradius 51.8105
rwrist 10.4348
rhand -16.0687 30.229
rfingers 7.12502
rthumb 10.1339 0.493016
lclavicle 3.94588e-014 -2.18663e-015
lhumerus -31.5011 -2.14105 86.4036
lradius 31.8286
lwrist 15.7636
lhand -9.79944 35.9328
lfingers 7.12502
lthumb 16.1768 65.2778
rfemur -18.7132 4.52625 16.327
rtibia 57.1742
rfoot 9.31302 4.77255
rtoes 18.7141
lfemur -38.0468 0.60963 -23.8364
ltibia 39.1166
lfoot -13.9923 5.76688
ltoes -8.27408
1719
root -10.0285 18.0367 -1.26887 14.2942 -103.314 -721.169
lowerback -12.1594 -0.154179 -3.20909
upperback 0.212496 0.170101 0.823781
thorax 7.04963 -0.0572354 2.71535
lowerneck -17.6027 2.37253 -0.497278
upperneck 22.9366 3.45542 -0.910684
head 10.2456 1.33211 0.221476
rclavicle -6.33626e-015 -1.67973e-014
rhumerus -41.3992 6.21809 -87.6198
rradius 51.7813
rwrist 10.4486
rhand -16.028 30.2178
rfingers 7.12502
rthumb 10.1731 0.483721
lclavicle -6.33626e-015 -1.67973e-014
lhumerus -31.2436 -2.29381 86.3771
lradius 32.1205
lwrist 15.817
lhand -10.232 35.6977
lfingers 7.12502
lthumb 15.7602 65.0761
rfemur -19.4591 4.36486 16.3097
rtibia 57.8978
rfoot 7.54518 4.37853
rtoes 19.1679
lfemur -37.8905 0.470669 -23.7986
ltibia 39.2013
lfoot -14.3381 5.64826
ltoes -7.57625
1720
root -10.0944 18.0392 -1.25433 13.8522 -103.184 -720.724
lowerback -12.1049 -0.206793 -3.0166
upperback 0.235686 0.0693297 0.856932
thorax 7.05055 -0.10026 2.62309
lowerneck -17.3977 2.41187 -0.485328
upperneck 22.6582 3.51406 -0.947256
head 10.1076 1.36326 0.210592
rclavicle -2.84138e-014 0
rhumerus -41.5171 5.83509 -87.3751
rradius 51.6517
rwrist 10.5315
rhand -16.253 30.56
rfingers 7.12502
rthumb 9.95605 0.815472
lclavicle -2.84138e-014 0
lhumerus -30.8467 -2.63032 86.3929
lradius 32.2013
lwrist 16.3203
lhand -10.8898 35.4926
lfingers 7.12502
lthumb 15.1267 64.9198
rfemur -20.1187 4.09958 16.3658
rtibia 58.4952
rfoot 5.88009 4.0595
rtoes 19.7017
lfemur -37.715 0.373826 -23.7476
ltibia 39.3041
lfoot -14.6329 5.47788
ltoes -7.39323
1721
root -10.1649 18.0435 -1.23832 13.4558 -103.134 -720.354
lowerback -12.0152 -0.341052 -2.93427
upperback 0.221403 -0.128068 0.914397
thorax 6.9979 -0.193745 2.60144
lowerneck -16.9672 2.57943 -0.0830929
upperneck 22.273 3.72706 -1.34954
head 9.90678 1.45786 0.0239386
rclavicle 1.82882e-014 -7.15625e-015
rhumerus -41.6788 5.75013 -87.2723
rradius 51.4504
rwrist 10.6894
rhand -16.77 30.9752
rfingers 7.12502
rthumb 9.45732 1.20742
lclavicle 1.82882e-014 -7.15625e-015
lhumerus -30.5789 -2.74173 86.3128
lradius 32.3209
lwrist 16.8557
lhand -11.3824 35.5822
lfingers 7.12502
lthumb 14.652 65.0445
rfemur -20.727 3.86605 16.358
rtibia 58.9743
rfoot 4.34599 3.83525
rtoes 20.8429
lfemur -37.4979 0.382627 -23.7771
ltibia 39.4057
lfoot -14.8564 5.41573
ltoes -8.15479
1722
root -10.2373 18.0458 -1.22301 12.915 -103.119 -719.868
lowerback -11.9826 -0.550611 -2.90724
upperback 0.296135 -0.416607 1.00842
thorax 7.07937 -0.337325 2.63442
lowerneck -17.0377 2.83531 0.326052
upperneck 22.2431 4.05071 -1.66407
head 9.92856 1.60523 -0.109305
rclavicle 1.69961e-014 1.73937e-014
rhumerus -41.7096 5.85271 -87.2598
rradius 51.3387
rwrist 10.7887
rhand -16.9971 31.2496
rfingers 7.12502
rthumb 9.23809 1.47202
lclavicle 1.69961e-014 1.73937e-014
lhumerus -30.3522 -2.30832 85.9898
lradius 32.5605
lwrist 16.7033
lhand -11.1653 35.6515
lfingers 7.12502
lthumb 14.8612 65.0985
rfemur -21.2975 3.80368 16.3636
rtibia 59.3471
rfoot 3.02046 3.59196
rtoes 22.006
lfemur -37.1704 0.284259 -23.737
ltibia 39.4682
lfoot -15.213 5.24222
ltoes -7.36129
1723
root -10.3094 18.0454 -1.20949 12.8522 -103.11 -719.839
lowerback -12.0381 -0.328762 -2.66594
upperback 0.324899 -0.154579 1.02092
thorax 7.12239 -0.201885 2.55832
lowerneck -16.988 2.58432 -0.37135
upperneck 22.2862 3.78885 -1.24631
head 9.90758 1.47337 0.116447
rclavicle 2.48481e-016 -4.77083e-015
rhumerus -42.0017 4.88505 -86.5837
rradius 51.4352
rwrist 10.7882
rhand -17.2055 31.4437
rfingers 7.12502
rthumb 9.03704 1.65727
lclavicle 2.48481e-016 -4.77083e-015
lhumerus -29.9779 -2.88314 86.3069
lradius 32.6471
lwrist 16.3952
lhand -10.9408 35.4443
lfingers 7.12502
lthumb 15.0775 64.8752
rfemur -21.901 3.72964 16.261
rtibia 59.6268
rfoot 1.8595 3.25643
rtoes 22.3928
lfemur -36.8442 0.0857993 -23.7811
ltibia 39.4821
lfoot -15.5507 5.1064
ltoes -6.25498
